IKResults
version=1
nRows=8
nColumns=63
inDegrees=yes

Units are S.I. units (second, meters, Newtons, ...)
If the header above contains a line with 'inDegrees', this indicates whether rotational values are in degrees (yes) or radians (no).

endheader
time	pelvis_tilt	pelvis_list	pelvis_rotation	pelvis_tx	pelvis_ty	pelvis_tz	hip_flexion_r	hip_adduction_r	hip_rotation_r	knee_angle_r	knee_angle_r_beta	ankle_angle_r	subtalar_angle_r	mtp_angle_r	hip_flexion_l	hip_adduction_l	hip_rotation_l	knee_angle_l	knee_angle_l_beta	ankle_angle_l	subtalar_angle_l	mtp_angle_l	L5_S1_Flex_Ext	L5_S1_Lat_Bending	L5_S1_axial_rotation	L4_L5_Flex_Ext	L4_L5_Lat_Bending	L4_L5_axial_rotation	L3_L4_Flex_Ext	L3_L4_Lat_Bending	L3_L4_axial_rotation	L2_L3_Flex_Ext	L2_L3_Lat_Bending	L2_L3_axial_rotation	L1_L2_Flex_Ext	L1_L2_Lat_Bending	L1_L2_axial_rotation	L1_T12_Flex_Ext	L1_T12_Lat_Bending	L1_T12_axial_rotation	Abs_r3	Abs_r2	Abs_r1	Abs_t1	Abs_t2	neck_flexion	neck_bending	neck_rotation	arm_flex_r	arm_add_r	arm_rot_r	elbow_flex_r	pro_sup_r	wrist_flex_r	wrist_dev_r	arm_flex_l	arm_add_l	arm_rot_l	elbow_flex_l	pro_sup_l	wrist_flex_l	wrist_dev_l
      6.03333333	     70.14677370	     -1.38609366	     -2.61156090	     -0.90108135	      0.33665549	     -0.50246382	     30.33197738	    -13.72176967	      4.83573575	     42.51357755	      0.74200190	    -27.47623040	    -16.53720688	      0.00000000	     30.66425769	    -20.23039338	      4.75244041	     47.98785029	      0.83754599	    -22.69252232	    -19.17970779	      0.00000000	    -10.48900114	     -0.21435334	      0.50903373	    -19.47912401	     -0.28508994	      0.54084834	    -17.23237997	     -0.52117871	      0.54084834	    -11.98787940	     -0.52117871	      0.44540451	     -9.74008646	     -0.43710933	      0.41358991	     -5.99341525	     -0.33203332	      0.38177530	    -74.92188623	     -2.42480786	      2.83109290	      0.00000000	      0.00000000	     28.15609063	     -2.72588381	    -16.11520538	     13.17379877	    -14.96444697	    -29.17725942	     26.33216562	     89.99559364	      0.00000000	      0.00000000	     17.05428693	    -19.29829686	    -17.05680793	     30.74265498	     89.99559364	      0.00000000	      0.00000000
      6.06666667	     70.14891887	     -1.56452982	     -2.74388995	     -0.90112760	      0.33678011	     -0.50222062	     30.32726215	    -13.48873176	      4.82433227	     42.50271618	      0.74181234	    -27.69725747	    -16.56075435	      0.00000000	     30.58602402	    -20.59396783	      4.37486041	     47.89710991	      0.83596227	    -22.51722990	    -19.18156938	      0.00000000	    -10.49407983	     -0.17406271	      0.72594955	    -19.48855566	     -0.23150340	      0.77132140	    -17.24072376	     -0.42321606	      0.77132140	    -11.99368384	     -0.42321606	      0.63520586	     -9.74480253	     -0.35494867	      0.58983401	     -5.99631722	     -0.26962313	      0.54446216	    -74.95816284	     -1.96903215	      4.03751362	      0.00000000	      0.00000000	     28.15392504	     -3.27870738	    -17.93499306	     12.21039485	    -15.27382277	    -29.53734840	     27.31087336	     89.99559364	      0.00000000	      0.00000000	     18.18628180	    -18.85769577	    -16.36266943	     29.87470127	     89.99559364	      0.00000000	      0.00000000
      6.10000000	     70.10833077	     -1.53979528	     -2.71360120	     -0.90118602	      0.33676771	     -0.50208572	     30.37455152	    -13.51195632	      4.82234819	     42.52551407	      0.74221024	    -27.75000510	    -16.51412400	      0.00000000	     30.62437913	    -20.59669758	      4.29211736	     47.82373770	      0.83468168	    -22.45663773	    -19.17213653	      0.00000000	    -10.48963815	     -0.16906580	      0.74732122	    -19.48030701	     -0.22485751	      0.79402880	    -17.23342652	     -0.41106659	      0.79402880	    -11.98860744	     -0.41106659	      0.65390607	     -9.74067799	     -0.34475898	      0.60719849	     -5.99377924	     -0.26188293	      0.56049092	    -74.92643634	     -1.91250615	      4.15637643	      0.00000000	      0.00000000	     28.16934613	     -3.27425831	    -17.93992887	     12.17388667	    -15.28530932	    -29.54952895	     27.32734475	     89.99559364	      0.00000000	      0.00000000	     18.42289209	    -18.78935661	    -16.32867908	     29.92240531	     89.99559364	      0.00000000	      0.00000000
      6.13333333	     70.10231059	     -1.69767411	     -2.87705906	     -0.90137549	      0.33680608	     -0.50186250	     30.38085909	    -13.36652486	      4.60997590	     42.43952068	      0.74070937	    -28.01087185	    -16.35642012	      0.00000000	     30.51282117	    -20.96131366	      3.82455336	     47.61897730	      0.83110794	    -22.51760205	    -19.19189002	      0.00000000	    -10.49292050	     -0.14410249	      0.89377206	    -19.48640266	     -0.19165631	      0.94963281	    -17.23881909	     -0.35037079	      0.94963281	    -11.99235884	     -0.35037079	      0.78205055	     -9.74372598	     -0.29385379	      0.72618980	     -5.99565477	     -0.22321475	      0.67032904	    -74.94988183	     -1.63011617	      4.97089207	      0.00000000	      0.00000000	     28.16188266	     -3.35542277	    -18.49256098	     11.52335869	    -15.48307968	    -29.72081480	     28.10832869	     89.99559364	      0.00000000	      0.00000000	     19.08391679	    -18.44597957	    -16.02956103	     29.51192490	     89.99559364	      0.00000000	      0.00000000
      6.16666667	     70.20153268	     -1.84617176	     -3.05962969	     -0.90173152	      0.33695097	     -0.50163890	     30.24400363	    -13.11331587	      4.74476738	     42.31608281	      0.73855497	    -28.18013211	    -16.32745342	      0.00000000	     30.29154508	    -21.23953175	      3.56848044	     47.49694878	      0.82897814	    -22.44741654	    -19.18766793	      0.00000000	    -10.51622457	     -0.13198917	      0.99572415	    -19.52968065	     -0.17554560	      1.05795691	    -17.27710535	     -0.32091848	      1.05795691	    -12.01899306	     -0.32091848	      0.87125863	     -9.76536614	     -0.26915233	      0.80902587	     -6.00897072	     -0.20445123	      0.74679311	    -75.11634049	     -1.49308794	      5.53791899	      0.00000000	      0.00000000	     28.16007533	     -3.82537752	    -19.22727980	     11.22052069	    -15.59805539	    -29.94933901	     28.51551963	     89.99559364	      0.00000000	      0.00000000	     19.50765937	    -18.29245788	    -15.58502264	     29.31673055	     89.99559364	      0.00000000	      0.00000000
      6.20000000	     70.19126990	     -1.85668742	     -3.07918884	     -0.90179566	      0.33690473	     -0.50163880	     30.26140204	    -13.10159667	      4.72050421	     42.31148146	      0.73847466	    -28.20412633	    -16.29812830	      0.00000000	     30.29309650	    -21.25881033	      3.55141460	     47.46370137	      0.82839786	    -22.43924140	    -19.15948230	      0.00000000	    -10.51600842	     -0.13264990	      0.99863388	    -19.52927924	     -0.17642436	      1.06104849	    -17.27675023	     -0.32252496	      1.06104849	    -12.01874602	     -0.32252496	      0.87380464	     -9.76516542	     -0.27049967	      0.81139002	     -6.00884721	     -0.20547469	      0.74897541	    -75.11479654	     -1.50056217	      5.55410203	      0.00000000	      0.00000000	     28.14833206	     -3.83522693	    -19.22440937	     11.23918182	    -15.59988061	    -29.95490467	     28.52822889	     89.99559364	      0.00000000	      0.00000000	     19.56378386	    -18.27035380	    -15.56280531	     29.34792763	     89.99559364	      0.00000000	      0.00000000
      6.23333333	     70.20257406	     -1.89880914	     -3.14919667	     -0.90195422	      0.33686572	     -0.50163977	     30.25654635	    -13.06935017	      4.63235955	     42.26268677	      0.73762303	    -28.31318304	    -16.24804331	      0.00000000	     30.24497426	    -21.32030089	      3.50784680	     47.43255943	      0.82785433	    -22.48445525	    -19.19659795	      0.00000000	    -10.52043816	     -0.13441062	      1.00385465	    -19.53750571	     -0.17876613	      1.06659557	    -17.28402786	     -0.32680599	      1.06659557	    -12.02380878	     -0.32680599	      0.87837282	     -9.76927888	     -0.27409014	      0.81563191	     -6.01137837	     -0.20820205	      0.75289099	    -75.14643776	     -1.52047985	      5.58313842	      0.00000000	      0.00000000	     28.14460909	     -3.86673401	    -19.19191626	     11.27862588	    -15.60593210	    -29.96320998	     28.57322900	     89.99559364	      0.00000000	      0.00000000	     19.56228152	    -18.27521048	    -15.52129482	     29.42223330	     89.99559364	      0.00000000	      0.00000000
      6.26666667	     70.37487717	     -2.04660421	     -3.28227957	     -0.90240604	      0.33704904	     -0.50162425	     30.00259033	    -12.92614833	      4.47078305	     42.05928572	      0.73407302	    -28.59098957	    -16.22992240	      0.00000000	     30.01837472	    -21.53925930	      3.37685835	     47.44572027	      0.82808403	    -22.55416902	    -19.19711656	      0.00000000	    -10.54890699	     -0.13816010	      0.99553221	    -19.59037516	     -0.18375293	      1.05775297	    -17.33079929	     -0.33592246	      1.05775297	    -12.05634579	     -0.33592246	      0.87109068	     -9.79571503	     -0.28173607	      0.80886992	     -6.02764545	     -0.21400999	      0.74664915	    -75.34978771	     -1.56289467	      5.53685147	      0.00000000	      0.00000000	     28.12248164	     -3.95691159	    -18.82561404	     11.52042018	    -15.61441802	    -29.97277522	     28.54516285	     89.99559364	      0.00000000	      0.00000000	     19.29817931	    -18.35974821	    -15.34000282	     29.86053826	     89.99559364	      0.00000000	      0.00000000
